{
    "asset": {
        "version": "2.0"
    },
    "extensionsUsed": [
        "KHR_collision_shapes"
    ],
    "extensions": {
        "KHR_collision_shapes": {
            "shapes": [
               {
                    "type": "sphere",
                    "sphere": {
                        "radius": 0.5
                    }
                },
                {
                    "type": "box",
                    "box": {
                        "size": [
                            0.25,
                            0.5,
                            1
                        ]
                    }
                },
                {
                    "type": "capsule",
                    "capsule": {
                        "height": 2,
                        "radiusTop": 0.5,
                        "radiusBottom": 0.5
                    }
                },
                {
                    "type": "cylinder",
                    "cylinder": {
                        "height": 1,
                        "radiusTop": 0.5,
                        "radiusBottom": 0.5
                    }
                },
                {
                    "type": "mesh",
                    "mesh": {
                        "mesh": 0
                    }
                },
                {
                    "type": "mesh",
                    "mesh": {
                        "mesh": 1,
                        "weights": [0, 1]
                    }
                },
                {
                    "type": "mesh",
                    "mesh": {
                        "mesh": 0,
                        "useNodeWeights": true
                    }
                },
                {
                    "type": "mesh",
                    "mesh": {
                        "mesh": 0,
                        "skin": 0
                    }
                }
             ]
        }
    },
    "meshes": [
        {
            "name": "Cube",
            "primitives": [
                {
                    "attributes": {
                        "POSITION": 0,
                        "TEXCOORD_0": 1,
                        "NORMAL": 2
                    },
                    "indices": 3
                }
            ]
        },
        {
            "primitives": [
                {
                    "attributes": {
                        "POSITION": 0,
                        "TEXCOORD_0": 1,
                        "NORMAL": 2
                    },
                    "indices": 3,
                    "targets": [
                        {
                            "POSITION": 0
                        },
                        {
                            "POSITION": 0
                        }
                    ]
                }
            ]
        }
    ],
    "skins": [
        {
            "inverseBindMatrices": 4,
            "joints": [1],
            "skeleton": 0
        }
    ],
    "nodes": [
        {
            "children": [1]
        },
        {}
    ],
    "accessors": [
        {
            "bufferView": 0,
            "componentType": 5126,
            "count": 24,
            "max": [
                1,
                1,
                1
            ],
            "min": [
                -1,
                -1,
                -1
            ],
            "type": "VEC3"
        },
        {
            "bufferView": 1,
            "componentType": 5126,
            "count": 24,
            "type": "VEC2"
        },
        {
            "bufferView": 2,
            "componentType": 5126,
            "count": 24,
            "type": "VEC3"
        },
        {
            "bufferView": 3,
            "componentType": 5123,
            "count": 36,
            "type": "SCALAR"
        },
        {
            "type": "MAT4",
            "componentType": 5126,
            "count": 1
        }
    ],
    "bufferViews": [
        {
            "buffer": 0,
            "byteLength": 288,
            "byteOffset": 0,
            "target": 34962
        },
        {
            "buffer": 0,
            "byteLength": 192,
            "byteOffset": 288,
            "target": 34962
        },
        {
            "buffer": 0,
            "byteLength": 288,
            "byteOffset": 480,
            "target": 34962
        },
        {
            "buffer": 0,
            "byteLength": 72,
            "byteOffset": 768,
            "target": 34963
        }
    ],
    "buffers": [
        {
            "byteLength": 840,
            "uri": "data:application/octet-stream;base64,"
        }
    ]
}
